<?xml version="1.0" standalone="no"?>
<!DOCTYPE svg PUBLIC "-//W3C//DTD SVG 20010904//EN"
 "http://www.w3.org/TR/2001/REC-SVG-20010904/DTD/svg10.dtd">
<svg version="1.0" xmlns="http://www.w3.org/2000/svg"
 width="1290.000000pt" height="745.000000pt" viewBox="0 0 1290.000000 745.000000"
 preserveAspectRatio="xMidYMid meet">

<g transform="translate(0.000000,745.000000) scale(0.100000,-0.100000)"
fill="#000000" stroke="none">
<path d="M0 3725 l0 -3725 6450 0 6450 0 0 3725 0 3725 -6450 0 -6450 0 0
-3725z m6687 3261 c21 -33 174 -224 224 -281 71 -80 138 -159 136 -161 -1 -1
-42 7 -92 17 -172 36 -449 21 -584 -30 -30 -11 -56 -19 -58 -17 -2 2 16 28 40
57 57 71 227 325 264 395 15 29 33 54 38 54 6 0 20 -15 32 -34z m243 -491
c240 -46 441 -166 597 -354 29 -36 51 -67 48 -69 -2 -2 -25 14 -52 36 -170
143 -443 219 -693 192 -396 -41 -698 -272 -818 -625 -112 -331 -33 -714 196
-952 68 -70 164 -144 235 -180 27 -13 47 -26 44 -29 -9 -9 -167 54 -242 97
-101 57 -228 161 -285 231 -96 119 -183 302 -215 453 -23 104 -23 293 -1 400
49 237 190 461 387 612 68 52 213 127 299 154 150 48 358 62 500 34z m-1083
-20 c98 -8 215 -15 261 -15 45 0 82 -4 82 -9 0 -4 -26 -25 -57 -46 -75 -50
-232 -203 -292 -284 -52 -71 -102 -158 -118 -206 -10 -30 -10 -29 -17 20 -21
152 -108 518 -132 556 -5 9 6 10 44 5 28 -4 132 -13 229 -21z m-177 -726 c-6
-24 -14 -114 -17 -199 -6 -176 10 -311 51 -412 13 -32 20 -58 15 -58 -5 0 -49
28 -97 63 -104 75 -215 146 -334 214 l-87 50 47 34 c44 31 246 199 302 250 14
12 47 43 73 67 27 24 50 42 53 39 3 -2 0 -24 -6 -48z m2049 -541 c-42 -143
-143 -305 -263 -423 -82 -82 -197 -165 -227 -165 -10 0 -86 33 -171 74 -84 40
-160 76 -168 78 -8 3 32 7 90 11 261 14 462 117 622 317 35 43 79 109 98 147
42 81 50 65 19 -39z m-1891 -331 c68 -93 211 -234 293 -289 63 -42 171 -98
188 -98 7 0 10 -4 7 -9 -3 -4 -28 -11 -55 -14 -72 -9 -363 -75 -454 -104 -43
-13 -81 -23 -83 -20 -2 2 0 35 6 73 5 38 15 176 22 307 7 130 13 237 14 237 1
0 29 -37 62 -83z m4272 -2688 c0 -643 -3 -825 -13 -831 -6 -5 -93 -7 -192 -6
l-180 3 -3 827 -2 828 192 2 c106 2 194 3 196 2 1 -1 2 -372 2 -825z m-7624
800 c203 -53 267 -154 268 -429 l1 -145 -187 -3 -188 -2 0 117 c-1 142 -10
191 -45 221 -91 78 -200 -57 -138 -173 10 -19 124 -141 254 -272 135 -136 245
-255 257 -278 24 -48 52 -176 52 -237 0 -75 -20 -171 -46 -225 -66 -137 -210
-203 -444 -203 -177 0 -294 41 -371 129 -70 79 -85 171 -79 494 l0 27 185 0
185 0 0 -155 c0 -184 7 -207 70 -226 36 -11 44 -10 68 8 52 39 65 146 27 226
-8 18 -119 134 -246 257 -127 123 -242 241 -255 262 -48 76 -67 243 -40 346
37 138 129 221 296 266 86 23 278 21 376 -5z m844 -644 c3 -363 9 -667 13
-676 13 -26 50 -41 97 -37 34 2 48 9 64 31 21 28 21 36 24 688 l2 659 205 0
205 0 0 -638 c0 -418 -4 -659 -11 -697 -29 -160 -150 -271 -333 -306 -70 -13
-281 -11 -351 5 -131 28 -230 97 -280 197 -39 76 -45 182 -45 837 l0 602 203
-2 202 -3 5 -660z m1324 648 c5 -16 119 -609 152 -793 8 -41 25 -162 39 -269
13 -107 26 -195 28 -197 2 -2 1 284 -1 636 l-5 640 157 0 156 0 2 -825 c2
-659 0 -826 -10 -830 -24 -9 -471 0 -480 10 -5 6 -19 60 -31 120 -13 61 -43
207 -67 325 -72 346 -152 749 -164 828 -7 40 -13 72 -15 70 -1 -2 2 -100 6
-218 5 -118 8 -422 7 -675 l-3 -460 -155 0 -155 0 -3 828 -2 827 269 0 c248 0
270 -1 275 -17z m1526 -387 l0 -405 -22 -3 -23 -3 -5 -420 -5 -420 -155 1
-155 2 -3 813 c-1 448 0 820 3 827 3 9 50 12 185 12 l180 0 0 -404z m202 361
c4 -21 12 -75 18 -120 14 -121 37 -295 71 -538 16 -119 35 -283 42 -365 15
-173 15 -175 53 161 14 127 49 381 78 565 l52 335 84 0 85 0 3 -407 2 -408
-25 0 -25 0 0 -407 c0 -225 -4 -414 -9 -421 -7 -11 -61 -13 -272 -11 -145 1
-268 4 -274 6 -7 2 -9 142 -7 401 3 381 0 443 -16 441 -44 -7 -42 -25 -42 399
0 219 3 402 7 406 4 4 43 5 87 4 l80 -3 8 -38z m873 -787 l0 -825 -130 -2
c-71 -1 -142 1 -157 3 l-28 6 0 414 0 414 -25 0 -25 0 0 403 c0 222 3 407 7
411 4 3 86 5 182 4 l176 -3 0 -825z m565 172 c0 -601 1 -660 17 -682 24 -36
33 -40 84 -40 36 0 50 5 70 26 l24 26 3 664 2 664 206 0 205 0 -3 -677 -3
-678 -31 -65 c-55 -115 -150 -187 -283 -216 -87 -18 -287 -18 -376 1 -151 32
-255 117 -297 243 -22 66 -22 76 -26 716 -2 356 -1 654 2 662 4 11 44 14 206
14 l200 0 0 -658z m1509 628 c35 -12 76 -29 90 -38 42 -26 93 -84 113 -129 24
-55 40 -183 36 -303 l-3 -95 -187 -3 -186 -2 -4 137 c-4 151 -14 186 -59 212
-22 12 -34 13 -67 3 -33 -10 -44 -20 -61 -55 -17 -36 -19 -49 -10 -87 6 -25
17 -55 24 -67 8 -12 119 -127 246 -255 191 -192 236 -244 260 -293 53 -111 60
-275 18 -411 -44 -141 -179 -219 -414 -239 -96 -8 -244 14 -308 46 -155 79
-200 184 -195 457 l3 147 185 0 185 0 2 -150 c2 -82 5 -160 8 -172 14 -62 101
-85 144 -39 31 33 43 93 31 156 -5 28 -14 58 -19 68 -5 9 -113 119 -240 244
-127 125 -242 245 -255 265 -64 97 -75 304 -21 415 46 97 133 162 265 200 94
26 327 20 419 -12z m1622 0 c77 -26 124 -56 172 -109 69 -77 80 -115 85 -299
l4 -162 -188 2 -187 3 -2 135 c0 77 -6 147 -12 162 -16 37 -78 56 -119 37 -53
-26 -55 -45 -52 -579 3 -442 5 -488 20 -512 23 -35 80 -47 117 -25 40 24 50
67 50 225 l1 142 185 0 185 0 0 -157 c0 -214 -18 -277 -99 -359 -86 -85 -198
-124 -367 -124 -273 0 -399 82 -449 292 -12 51 -15 153 -15 529 0 292 4 487
11 525 14 76 52 146 106 194 54 47 98 68 188 92 93 24 276 18 366 -12z m-4451
-1915 c0 -8 -11 -22 -24 -30 -39 -26 -72 -82 -125 -215 -28 -68 -49 -125 -48
-127 2 -1 42 51 90 117 129 175 207 239 318 260 57 11 92 0 82 -26 -5 -12 -15
-14 -54 -9 -47 7 -48 6 -78 -35 -16 -22 -51 -91 -76 -153 -57 -135 -94 -196
-149 -244 -41 -35 -41 -36 -11 -29 17 4 53 20 80 35 37 21 53 37 61 62 15 45
75 112 118 133 38 18 116 22 132 6 8 -8 19 -8 38 0 15 5 43 10 63 10 l35 0
-43 -77 c-77 -140 -90 -173 -70 -173 21 0 102 90 130 144 36 69 38 80 11 73
-13 -3 -20 0 -20 9 0 9 11 14 30 14 26 0 34 7 57 49 27 48 30 50 78 53 27 2
52 3 55 1 2 -2 -6 -23 -18 -46 -12 -23 -22 -45 -22 -49 0 -5 19 -8 42 -8 56 0
38 -18 -22 -22 l-45 -3 -49 -98 c-39 -76 -47 -100 -38 -109 25 -25 92 28 190
152 11 14 24 22 28 18 18 -19 -127 -178 -181 -198 -62 -24 -118 -7 -130 37 -6
24 -8 26 -18 13 -48 -62 -133 -81 -162 -36 l-16 25 -36 -25 c-41 -28 -94 -31
-117 -8 -9 8 -16 18 -16 22 0 4 -4 13 -9 21 -7 11 -14 9 -37 -8 -55 -40 -243
-71 -266 -44 -17 21 9 34 53 27 l37 -6 35 73 c20 41 56 117 81 169 25 52 58
111 73 130 24 30 24 32 4 15 -13 -11 -74 -88 -136 -171 -104 -138 -175 -213
-232 -243 -30 -15 -38 1 -18 39 9 17 32 77 51 133 20 56 49 126 65 155 16 28
26 52 23 52 -9 0 -38 -38 -121 -158 -144 -212 -253 -275 -338 -196 -46 42 -27
124 29 124 45 0 61 -47 29 -82 -15 -17 -15 -20 -3 -28 51 -32 129 10 201 108
24 34 76 104 114 158 82 113 134 162 218 204 68 34 77 36 77 15z m3930 -9 c0
-5 -105 -193 -142 -253 -23 -39 -11 -43 22 -8 31 33 82 42 115 21 37 -25 33
-67 -16 -147 -22 -38 -39 -75 -37 -84 5 -27 75 41 111 109 42 79 108 126 176
126 26 0 52 -5 58 -11 8 -8 17 -8 31 0 23 12 102 15 102 4 0 -5 -8 -21 -18
-38 -73 -120 -111 -205 -93 -205 21 0 91 73 110 114 36 82 119 136 208 136 55
0 83 -17 83 -50 0 -28 -32 -59 -67 -66 l-33 -6 0 46 c0 61 -21 61 -60 -1 -56
-89 -50 -163 13 -163 44 0 101 42 158 114 42 53 59 67 59 47 0 -5 -17 -31 -39
-58 -89 -114 -187 -166 -263 -144 -26 8 -45 22 -56 42 -17 29 -32 38 -32 19 0
-20 -75 -60 -112 -60 -30 0 -40 5 -50 25 l-13 25 -36 -26 c-60 -42 -119 -32
-140 24 l-9 24 -28 -27 c-32 -33 -80 -55 -101 -47 -64 22 -68 83 -11 171 42
65 48 81 28 81 -29 -1 -106 -90 -157 -181 -30 -54 -34 -57 -79 -62 -33 -4 -50
-2 -56 8 -8 11 -13 11 -32 -2 -12 -8 -38 -13 -56 -11 -28 2 -35 9 -44 37 -15
46 -8 74 37 140 40 60 38 86 -5 58 -32 -21 -109 -122 -137 -180 -21 -44 -24
-45 -73 -49 -28 -2 -53 -3 -56 0 -5 3 58 129 110 220 l30 52 56 0 c52 0 54 -1
43 -21 -10 -19 -7 -19 27 5 47 32 83 33 113 5 30 -28 23 -62 -29 -149 -61
-101 -52 -119 21 -45 39 40 117 170 215 358 20 40 44 72 57 77 21 8 97 14 97
6z m-1448 -90 c-3 -43 0 -62 13 -76 24 -27 11 -41 -25 -28 -17 5 -30 13 -30
16 0 4 -9 18 -19 32 l-19 24 -46 -42 c-44 -40 -66 -52 -66 -33 0 9 66 88 117
139 22 22 39 31 55 28 21 -3 23 -7 20 -60z m-782 -31 c0 -74 5 -86 27 -64 15
15 51 2 64 -23 16 -29 2 -84 -26 -106 -13 -11 -21 -22 -18 -26 16 -16 35 -2
68 49 35 55 35 55 85 55 27 0 50 -2 50 -4 0 -3 -25 -52 -55 -109 -54 -102 -65
-137 -44 -137 15 0 100 91 129 138 22 37 50 56 50 33 0 -18 -104 -144 -142
-171 -53 -39 -101 -40 -124 -4 -14 21 -15 33 -6 72 6 26 10 47 9 48 -1 1 -14
4 -29 8 -23 5 -28 3 -28 -12 0 -30 -56 -100 -97 -121 -57 -28 -114 -35 -156
-18 -41 18 -50 30 -57 81 -5 39 -6 40 -48 42 -47 2 -79 24 -84 57 -3 19 -7 17
-39 -18 -21 -21 -49 -65 -65 -97 -21 -45 -33 -58 -50 -58 -12 0 -36 -3 -54 -7
-30 -6 -33 -4 -28 15 7 27 6 27 -34 2 -40 -24 -105 -26 -130 -3 -28 25 -23 81
16 157 19 36 31 67 27 68 -3 0 -12 2 -20 2 -8 1 -16 7 -19 14 -2 8 8 12 30 12
29 0 36 6 61 49 26 48 29 49 78 53 28 1 52 0 54 -3 2 -3 -7 -24 -21 -48 -13
-24 -24 -45 -24 -47 0 -2 18 -4 40 -4 22 0 40 -4 40 -10 0 -5 -22 -10 -48 -10
l-49 0 -42 -77 c-23 -43 -45 -93 -48 -110 -5 -28 -3 -33 15 -33 34 0 126 93
166 169 39 74 48 81 107 81 43 0 46 -5 23 -38 -21 -30 -11 -28 29 8 26 22 48
31 93 36 l59 7 -28 -32 c-32 -38 -44 -78 -29 -93 8 -8 23 2 54 37 50 57 106
84 171 85 42 0 53 -4 78 -31 16 -17 29 -35 29 -40 0 -15 17 -10 24 7 4 11 -1
18 -14 21 -19 5 -24 14 -21 41 1 6 -4 12 -12 12 -8 0 -20 19 -27 43 -7 23 -21
59 -31 79 -11 21 -19 40 -19 43 0 3 20 5 45 5 l45 0 0 -75z m-1371 -2 c22 3
61 19 87 36 25 18 49 30 52 27 10 -10 -50 -85 -85 -106 -39 -23 -99 -26 -125
-6 -20 15 -51 93 -42 107 3 5 21 -7 40 -27 31 -33 38 -36 73 -31z m1669 25
c31 -31 5 -98 -37 -98 -34 0 -53 20 -53 55 0 14 5 32 12 40 15 18 61 20 78 3z
m387 -148 c4 -7 12 -7 25 0 17 9 110 15 110 6 0 -1 -24 -46 -54 -98 -56 -96
-76 -148 -58 -148 25 0 98 83 141 160 l47 85 57 3 c57 3 58 3 46 -19 l-11 -22
30 21 c51 37 132 21 132 -26 0 -12 5 -11 23 5 32 30 62 43 96 43 72 0 79 -68
17 -165 -76 -118 -14 -96 81 29 61 80 60 79 67 68 7 -12 -75 -126 -123 -169
-63 -57 -119 -61 -142 -9 -17 36 -4 84 36 140 35 50 44 76 25 76 -20 0 -97
-90 -141 -165 -24 -41 -51 -75 -59 -75 -8 0 -32 -3 -52 -6 -22 -4 -38 -3 -38
3 0 5 27 58 60 117 33 59 60 112 60 117 0 42 -109 -68 -160 -162 l-35 -64 -53
-5 c-59 -6 -67 -3 -51 17 16 18 4 16 -16 -3 -9 -9 -36 -19 -60 -21 -38 -5 -45
-2 -60 21 l-17 26 -31 -24 c-97 -73 -182 8 -133 125 17 39 80 104 116 118 33
13 117 14 125 1z m-2201 -335 c42 -43 20 -105 -37 -105 -41 0 -57 15 -57 54 0
55 58 87 94 51z m3906 -5 c24 -24 26 -57 3 -82 -33 -37 -103 -11 -103 39 0 28
33 63 60 63 11 0 29 -9 40 -20z"/>
<path d="M6728 773 c-36 -38 -67 -101 -70 -143 -3 -29 1 -36 18 -38 25 -4 65
44 95 114 36 80 9 121 -43 67z"/>
<path d="M10628 768 c-60 -64 -92 -178 -50 -178 57 0 144 191 94 208 -7 2 -26
-11 -44 -30z"/>
<path d="M8063 780 c-36 -37 -78 -120 -88 -172 -9 -46 11 -59 49 -34 35 23 98
154 94 196 -4 44 -19 47 -55 10z"/>
<path d="M8797 774 c-30 -32 -77 -125 -77 -152 0 -62 58 -33 104 52 50 92 31
163 -27 100z"/>
</g>
</svg>
